<?xml version="1.0" standalone="no"?>
<!DOCTYPE svg PUBLIC "-//W3C//DTD SVG 1.1//EN" "http://www.w3.org/Graphics/SVG/1.1/DTD/svg11.dtd" >
<svg xmlns="http://www.w3.org/2000/svg">
<metadata>Generated by IcoMoon</metadata>
<defs>
<font id="icomoon" horiz-adv-x="1024">
<font-face units-per-em="1024" ascent="960" descent="-64" />
<missing-glyph horiz-adv-x="1024" />
<glyph unicode="&#x20;" horiz-adv-x="512" d="" />
<glyph unicode="&#xe900;" glyph-name="Group-1242" d="M294.592 629.184c0.012 0.204 0.018 0.443 0.018 0.684 0 3.194-1.17 6.114-3.104 8.357l0.014-0.017-98.944 112.512c-2.346 2.536-5.691 4.119-9.406 4.119-3.126 0-5.991-1.121-8.214-2.983l0.020 0.016c-44.666-39.344-82.060-85.634-110.787-137.399l-1.341-2.633c-0.897-1.704-1.423-3.724-1.423-5.866 0-4.719 2.554-8.842 6.355-11.061l0.061-0.033 131.456-71.872c1.73-0.965 3.795-1.533 5.992-1.533 4.71 0 8.81 2.609 10.935 6.46l0.033 0.064c19.889 35.977 44.626 66.59 73.801 92.284l0.375 0.324c2.395 2.13 3.956 5.153 4.158 8.542l0.002 0.034zM337.152 670.208c2.138-3.984 6.274-6.647 11.033-6.647 2.146 0 4.165 0.542 5.929 1.496l-0.066-0.033c32.626 17.683 70.64 30.424 110.94 36.023l1.764 0.201c6.142 1.014 10.769 6.286 10.769 12.638 0 0.508-0.030 1.009-0.087 1.502l0.006-0.060-20.16 148.48c-1.014 6.142-6.286 10.769-12.638 10.769-0.508 0-1.009-0.030-1.502-0.087l0.060 0.006c-63.852-8.822-121.553-28.18-173.779-56.376l2.707 1.336c-3.931-2.235-6.539-6.395-6.539-11.164 0-2.090 0.501-4.062 1.389-5.804l-0.034 0.073zM177.92 471.104l-144.64 39.232c-0.911 0.232-1.956 0.364-3.033 0.364-5.761 0-10.634-3.806-12.239-9.042l-0.024-0.091c-11.379-40.417-17.92-86.832-17.92-134.775 0-0.026 0-0.051 0-0.077v0.004c0-7.808 0-15.68 0.576-24 0.474-6.575 5.849-11.75 12.465-11.904h0.591l149.696 6.912c6.673 0.482 11.904 6.015 11.904 12.769 0 0.011 0 0.022 0 0.033v-0.002c0 5.632-0.384 10.816-0.384 15.936 0 0.047 0 0.102 0 0.157 0 31.68 4.322 62.351 12.408 91.456l-0.568-2.397c0.248 0.941 0.39 2.021 0.39 3.134 0 5.794-3.85 10.689-9.131 12.266l-0.091 0.023zM734.464 828.352c-50.316 24.871-108.872 42.051-170.671 48.212l-2.129 0.172c-0.278 0.021-0.602 0.034-0.928 0.034-6.517 0-11.897-4.871-12.697-11.17l-0.007-0.063-14.464-149.12c-0.021-0.278-0.034-0.602-0.034-0.928 0-6.517 4.871-11.897 11.17-12.697l0.063-0.007c42.175-4.196 80.799-15.557 115.958-32.879l-1.974 0.879c1.544-0.712 3.35-1.128 5.254-1.128 4.934 0 9.216 2.792 11.352 6.881l0.034 0.071 64.768 135.040c0.743 1.572 1.176 3.415 1.176 5.359 0 4.902-2.756 9.161-6.803 11.311l-0.069 0.034zM952.896 619.52c0.225 0.898 0.354 1.929 0.354 2.991 0 2.39-0.655 4.626-1.795 6.54l0.032-0.059c-31.904 52.832-70.965 97.68-116.515 134.884l-0.925 0.732c-2.128 1.74-4.876 2.794-7.87 2.794-3.888 0-7.36-1.778-9.649-4.564l-0.017-0.022-94.528-116.224c-1.665-2.139-2.67-4.865-2.67-7.824 0-3.876 1.723-7.35 4.445-9.698l0.017-0.014c30.744-25.061 56.585-54.692 76.843-88.086l0.853-1.514c2.305-3.606 6.288-5.963 10.821-5.963 2.328 0 4.512 0.622 6.393 1.708l-0.062-0.033 128.64 76.8c2.732 1.707 4.746 4.345 5.611 7.462l0.021 0.090zM1000.576 520.576c-1.764 5.099-6.524 8.696-12.124 8.696-1.267 0-2.491-0.184-3.646-0.527l0.091 0.023-142.976-44.8c-5.091-1.769-8.679-6.524-8.679-12.119 0-1.246 0.178-2.45 0.51-3.588l-0.023 0.090c9.824-30.323 15.488-65.213 15.488-101.425 0-0.095 0-0.191 0-0.286v0.015c0-5.12 0-10.304-0.384-15.936 0-0.009 0-0.020 0-0.031 0-6.754 5.231-12.286 11.863-12.766l0.041-0.002 150.272-6.912c6.632 0.154 12.006 5.329 12.478 11.863l0.002 0.041c0.384 8.32 0.576 16.192 0.576 24-0.001 54.865-8.59 107.724-24.497 157.306l1.009-3.642zM577.835 270.254l-6.304 1.114-179.235 153.030c-1.655 1.463-3.782 2.532-6.186 2.957-6.963 1.23-13.605-3.418-14.835-10.381-0.413-2.338-0.163-4.64 0.614-6.714l-0.022 0.064 72.916-223.504c-1.022-3.494-1.983-7.597-2.733-11.79l-0.002-0.013c-11.255-63.713 31.271-124.487 94.984-135.742s124.487 31.271 135.742 94.984c11.255 63.713-31.271 124.487-94.984 135.742v0z" />
<glyph unicode="&#xe901;" glyph-name="pickup-car" horiz-adv-x="1223" d="M351.728 664.295c0.014 0.244 0.022 0.529 0.022 0.816 0 3.814-1.397 7.302-3.707 9.98l0.017-0.020-118.16 134.363c-2.802 3.029-6.796 4.918-11.233 4.918-3.734 0-7.155-1.339-9.809-3.562l0.024 0.019c-53.341-46.985-97.997-102.265-132.303-164.083l-1.601-3.144c-1.071-2.035-1.7-4.447-1.7-7.005 0-5.636 3.050-10.559 7.589-13.209l0.072-0.039 156.986-85.83c2.066-1.152 4.532-1.831 7.156-1.831 5.624 0 10.521 3.116 13.059 7.715l0.039 0.077c23.751 42.963 53.293 79.523 88.134 110.207l0.448 0.387c2.861 2.544 4.725 6.154 4.966 10.201l0.002 0.041zM402.553 713.286c2.553-4.757 7.493-7.938 13.176-7.938 2.563 0 4.974 0.647 7.081 1.786l-0.079-0.039c38.962 21.118 84.359 36.333 132.485 43.019l2.107 0.24c7.335 1.211 12.861 7.506 12.861 15.092 0 0.607-0.035 1.205-0.104 1.794l0.007-0.071-24.075 177.316c-1.211 7.335-7.506 12.861-15.092 12.861-0.607 0-1.205-0.035-1.794-0.104l0.071 0.007c-76.253-10.536-145.159-33.653-207.529-67.325l3.233 1.596c-4.694-2.669-7.809-7.637-7.809-13.332 0-2.495 0.598-4.851 1.658-6.932l-0.040 0.087zM212.397 475.515l-172.73 46.851c-1.088 0.277-2.336 0.435-3.622 0.435-6.88 0-12.699-4.546-14.616-10.798l-0.029-0.108c-13.589-48.267-21.4-103.696-21.4-160.949 0-0.031 0-0.061 0-0.092v0.005c0-9.324 0-18.725 0.688-28.661 0.566-7.852 6.984-14.031 14.886-14.216h0.706l178.768 8.254c7.969 0.576 14.216 7.183 14.216 15.248 0 0.013 0 0.026 0 0.040v-0.002c0 6.726-0.459 12.917-0.459 19.031 0 0.056 0 0.122 0 0.188 0 37.833 5.161 74.461 14.818 109.217l-0.679-2.862c0.296 1.124 0.465 2.413 0.465 3.743 0 6.919-4.598 12.765-10.904 14.649l-0.108 0.028zM877.026 902.143c-60.088 29.702-130.016 50.217-203.817 57.575l-2.542 0.205c-0.332 0.026-0.718 0.040-1.108 0.040-7.783 0-14.207-5.816-15.163-13.34l-0.008-0.076-17.273-178.080c-0.026-0.332-0.040-0.718-0.040-1.108 0-7.783 5.816-14.207 13.34-15.163l0.076-0.008c50.366-5.011 96.49-18.579 138.477-39.264l-2.357 1.049c1.844-0.851 4.001-1.347 6.274-1.347 5.892 0 11.006 3.334 13.557 8.218l0.040 0.084 77.346 161.266c0.887 1.877 1.404 4.078 1.404 6.4 0 5.854-3.291 10.94-8.124 13.508l-0.083 0.040zM1137.88 652.754c0.269 1.073 0.423 2.304 0.423 3.571 0 2.854-0.782 5.525-2.143 7.81l0.039-0.070c-38.1 63.092-84.747 116.651-139.143 161.079l-1.105 0.875c-2.541 2.078-5.823 3.337-9.398 3.337-4.643 0-8.789-2.123-11.523-5.451l-0.021-0.026-112.886-138.796c-1.989-2.555-3.188-5.809-3.188-9.344 0-4.629 2.058-8.778 5.309-11.581l0.020-0.017c36.715-29.928 67.574-65.314 91.767-105.193l1.018-1.808c2.752-4.307 7.509-7.121 12.923-7.121 2.781 0 5.388 0.742 7.634 2.040l-0.074-0.039 153.623 91.715c3.263 2.038 5.668 5.189 6.7 8.911l0.025 0.107zM1194.82 534.594c-2.106 6.090-7.791 10.385-14.479 10.385-1.513 0-2.974-0.22-4.355-0.629l0.108 0.028-170.743-53.501c-6.079-2.112-10.365-7.792-10.365-14.472 0-1.487 0.212-2.925 0.609-4.285l-0.027 0.108c11.732-36.212 18.496-77.878 18.496-121.123 0-0.114 0-0.228 0-0.341v0.018c0-6.114 0-12.305-0.459-19.031 0-0.011 0-0.024 0-0.037 0-8.066 6.247-14.672 14.166-15.245l0.050-0.003 179.456-8.254c7.919 0.184 14.338 6.364 14.901 14.166l0.003 0.049c0.459 9.936 0.688 19.337 0.688 28.661-0.001 65.521-10.258 128.645-29.255 187.856l1.205-4.349zM689.979 235.658l-7.528 1.33-214.044 182.75c-1.977 1.747-4.517 3.024-7.387 3.531-8.316 1.469-16.247-4.081-17.716-12.397-0.493-2.792-0.195-5.542 0.734-8.017l-0.026 0.077 87.076-266.91c-1.221-4.173-2.368-9.073-3.264-14.080l-0.003-0.015c-13.441-76.087 37.344-148.664 113.431-162.104s148.664 37.344 162.104 113.431c13.441 76.087-37.344 148.664-113.431 162.104v0z" />
<glyph unicode="&#xe902;" glyph-name="cfcfe5525d392a91457d5e35b0352c" horiz-adv-x="996" d="M497.877 960c-275.85-4.013-497.926-228.57-497.926-504.995 0-2.463 0.018-4.922 0.053-7.376l-0.004 0.372c-0.031-2.071-0.048-4.515-0.048-6.964 0-276.404 222.023-500.952 497.456-505.032l0.384-0.004c106.842 0.567 205.368 35.708 285.081 94.79l-1.305-0.924c21.333 20.181 34.603 22.571 34.603 44.416l0.299 4.267c0.003 0.192 0.005 0.418 0.005 0.644 0 25.108-20.175 45.504-45.198 45.862h-0.034c-12.94-0.021-24.56-5.653-32.561-14.593l-0.037-0.042c-65.941-50.527-149.576-80.993-240.324-81.067h-0.018c-226.061 3.272-408.061 187.295-408.061 413.826 0 2.010 0.014 4.016 0.043 6.019l-0.003-0.303c-0.095 3.288-0.149 7.158-0.149 11.040 0 225.438 182.754 408.192 408.192 408.192s408.192-182.754 408.192-408.192c0-3.882-0.054-7.752-0.162-11.608l0.013 0.568c-0.026-64.862-14.508-126.336-40.399-181.382l1.103 2.609c-6.998-13.717-14.064-30.424-20.028-47.645l-0.878-2.915-0.299-4.267c-0.003-0.179-0.004-0.39-0.004-0.602 0-25.179 20.231-45.632 45.325-45.99h0.034c20.326 0.333 37.347 14.1 42.591 32.793l0.076 0.317c38.902 71.127 61.781 155.818 61.781 245.853 0 0.117 0 0.235 0 0.352v-0.019c0.032 2.109 0.050 4.597 0.050 7.090 0 276.379-222.039 500.898-497.464 504.905l-0.377 0.004zM219.861 503.467c0.652-11.298 5.416-21.372 12.804-28.847l-0.004 0.004c7.432-7.446 17.529-12.229 28.738-12.796l0.104-0.004c0.689-0.050 1.493-0.079 2.304-0.079s1.615 0.029 2.411 0.085l-0.107-0.006h460.8c24.354 0 44.096 19.742 44.096 44.096s-19.742 44.096-44.096 44.096v0l-359.979-0.512 52.139 52.651c6.988 7.574 11.273 17.734 11.273 28.894 0 23.564-19.103 42.667-42.667 42.667-11.161 0-21.32-4.285-28.924-11.3l0.029 0.027-126.123-127.275c-7.003-6.964-11.571-16.368-12.323-26.83l-0.008-0.136h-0.299c-0.063-0.703-0.099-1.521-0.099-2.347s0.036-1.644 0.106-2.452l-0.007 0.105zM571.733 209.451c7.725-7.744 18.407-12.535 30.208-12.535s22.483 4.791 30.207 12.534l0.001 0.001 126.208 127.061c6.939 6.957 11.491 16.297 12.321 26.688l0.010 0.15h0.299s0 3.115 0 4.608v0c-0.66 11.256-5.424 21.287-12.803 28.717l0.003-0.003c-7.481 7.368-17.549 12.128-28.719 12.794l-0.123 0.006c-0.689 0.050-1.493 0.079-2.304 0.079s-1.615-0.029-2.411-0.085l0.107 0.006h-460.8c-24.295 0-43.989-19.695-43.989-43.989s19.695-43.989 43.989-43.989v0l360.064 0.512-52.139-52.779c-7.725-7.638-12.509-18.236-12.509-29.952 0-11.652 4.732-22.199 12.38-29.823l0.001-0.001z" />
<glyph unicode="&#xe903;" horiz-adv-x="1411" d="M1347.212 191.524h-65.371v65.371c0 35.006-28.378 63.385-63.385 63.385s-63.385-28.378-63.385-63.385v0-65.371h-65.371c-35.006 0-63.385-28.378-63.385-63.385s28.378-63.385 63.385-63.385h65.37v-65.371c0-35.006 28.378-63.385 63.385-63.385s63.385 28.378 63.385 63.385v0 65.371h65.371c35.006 0 63.385 28.378 63.385 63.385s-28.378 63.385-63.385 63.385v0z" />
<glyph unicode="&#xe904;" horiz-adv-x="1411" d="M1281.841 751.725c0.14 2.795 0.22 6.070 0.22 9.364 0 106.41-83.447 193.331-188.472 198.891l-0.495 0.021h-904.347c-105.52-5.581-188.967-92.501-188.967-198.912 0-3.294 0.080-6.568 0.238-9.823l-0.018 0.459c-0.007-0.183-0.011-0.398-0.011-0.613 0-8.766 6.815-15.939 15.435-16.513l0.050-0.003h1250.563c8.819 0.404 15.815 7.651 15.815 16.533 0 0.209-0.004 0.418-0.012 0.625l0.001-0.030z" />
<glyph unicode="&#xe905;" horiz-adv-x="1411" d="M1281.841 594.918v-77.452c0.028-0.522 0.044-1.132 0.044-1.747 0-18.966-15.375-34.34-34.34-34.34-0.277 0-0.554 0.003-0.83 0.010l0.041-0.001c-1.593 0.027-3.474 0.042-5.357 0.042-187.371 0-339.265-151.894-339.265-339.265 0-13.631 0.804-27.075 2.367-40.286l-0.154 1.6c0.135-1.153 0.212-2.489 0.212-3.843 0-18.72-14.73-33.999-33.232-34.879l-0.079-0.003h-682.501c-105.516 5.585-188.96 92.503-188.96 198.911 0 3.235 0.077 6.453 0.23 9.65l-0.017-0.451v321.888c-0.014 0.257-0.022 0.558-0.022 0.861 0 8.769 6.821 15.946 15.447 16.513l0.050 0.003h1250.563c8.82-0.402 15.819-7.65 15.819-16.533 0-0.238-0.005-0.476-0.015-0.712l0.001 0.034z" />
<glyph unicode="&#xe906;" glyph-name="Group-2370" d="M512 128.064c-0.349-0.001-0.762-0.001-1.175-0.001-106.946 0-206.060 33.536-287.398 90.665l1.598-1.064c-81.407 56.987-144.3 135.352-181.129 226.998l-1.207 3.402c75.694 188.858 257.21 319.81 469.312 319.81s393.618-130.952 468.109-316.417l1.203-3.393c-38.018-95.041-100.89-173.405-180.65-229.322l-1.622-1.078c-79.754-56.066-178.881-89.601-285.841-89.601-0.422 0-0.843 0.001-1.264 0.002h0.065zM512 661.44c-117.781-0.036-213.248-95.526-213.248-213.312 0-117.809 95.503-213.312 213.312-213.312 117.786 0 213.275 95.467 213.312 213.244v0.004c-0.182 117.745-95.62 213.139-213.365 213.248h-0.011zM512 576c-70.692 0-128-57.308-128-128s57.308-128 128-128c70.692 0 128 57.308 128 128v0c0 70.692-57.308 128-128 128v0z" />
<glyph unicode="&#xe907;" d="M1024 448c0-282.77-229.23-512-512-512s-512 229.23-512 512c0 282.77 229.23 512 512 512s512-229.23 512-512z" />
<glyph unicode="&#xe908;" d="M430.592 539.36l45.792 44.8v-204.608c0-20.324 16.476-36.8 36.8-36.8s36.8 16.476 36.8 36.8v0 204.672l45.76-44.8c6.712-6.526 15.886-10.55 26-10.55s19.288 4.024 26.009 10.559l-0.009-0.008c6.643 6.461 10.764 15.485 10.764 25.472s-4.121 19.011-10.756 25.464l-0.008 0.008-108.608 106.304c-6.712 6.526-15.886 10.55-26 10.55s-19.288-4.024-26.009-10.559l0.009 0.008-108.544-106.336c-6.643-6.461-10.764-15.485-10.764-25.472s4.121-19.011 10.756-25.464l0.008-0.008c6.717-6.528 15.897-10.554 26.016-10.554 10.104 0 19.27 4.013 25.993 10.531l-0.010-0.009z" />
<glyph unicode="&#xe909;" d="M722.208 274.528c-0.416-48.408-39.754-87.49-88.221-87.49-0.181 0-0.362 0.001-0.543 0.002h-240.644c-0.153-0.001-0.334-0.002-0.515-0.002-48.467 0-87.805 39.082-88.221 87.45v0.039c0 20.183 16.361 36.544 36.544 36.544s36.544-16.361 36.544-36.544v0c0.090-8.538 7.033-15.424 15.583-15.424 0.023 0 0.046 0 0.068 0h240.668c0.019 0 0.042 0 0.065 0 8.551 0 15.493 6.886 15.583 15.416v0.009c0 20.183 16.361 36.544 36.544 36.544s36.544-16.361 36.544-36.544v0z" />
<glyph unicode="&#xe90a;" glyph-name="nature-1-1" d="M800.011 224.026l-68.185 68.185 77.1 15.48-17.859 88.635-136.16-27.196-78.907 78.907 92.189 92.189 117.457-39.152 28.641 85.804-74.54 24.907 60.234 60.234-63.999 63.999-60.234-60.234-24.877 74.51-85.804-28.641 39.152-117.457-92.189-92.189-78.907 78.907 27.196 136.16-88.635 17.859-15.48-77.1-68.185 68.185-63.999-63.999 68.215-68.215-77.16-15.48 17.739-88.755 136.31 27.286 78.877-78.877-78.877-78.877-136.31 27.226-17.799-88.695 77.070-15.39-68.155-68.155 64.059-64.059 68.185 68.185 15.45-77.19 88.785 17.709-27.286 136.431 78.847 78.847 78.877-78.877-27.286-136.31 88.755-17.739 15.48 77.16 68.215-68.215z" />
<glyph unicode="&#xe90b;" glyph-name="nature-1" d="M800.011 224.026l-68.185 68.185 77.1 15.48-17.859 88.635-136.16-27.196-78.907 78.907 92.189 92.189 117.457-39.152 28.641 85.804-74.54 24.907 60.234 60.234-63.999 63.999-60.234-60.234-24.877 74.51-85.804-28.641 39.152-117.457-92.189-92.189-78.907 78.907 27.196 136.16-88.635 17.859-15.48-77.1-68.185 68.185-63.999-63.999 68.215-68.215-77.16-15.48 17.739-88.755 136.31 27.286 78.877-78.877-78.877-78.877-136.31 27.226-17.799-88.695 77.070-15.39-68.155-68.155 64.059-64.059 68.185 68.185 15.45-77.19 88.785 17.709-27.286 136.431 78.847 78.847 78.877-78.877-27.286-136.31 88.755-17.739 15.48 77.16 68.215-68.215z" />
<glyph unicode="&#xe90c;" glyph-name="pay" horiz-adv-x="1360" d="M1331.342 506.777h-1303.015c-0.453 0.027-0.983 0.043-1.516 0.043-14.831 0-26.853-12.023-26.853-26.853 0-0.533 0.016-1.063 0.046-1.588l-0.003 0.073v-399.572c-0.008-0.574-0.013-1.251-0.013-1.929 0-77.752 63.030-140.782 140.782-140.782 0.303 0 0.607 0.001 0.91 0.003h1076.357c0.256-0.002 0.56-0.003 0.863-0.003 77.752 0 140.782 63.030 140.782 140.782 0 0.678-0.005 1.355-0.014 2.031l0.001-0.103v399.572c0.027 0.453 0.043 0.983 0.043 1.516 0 14.831-12.023 26.853-26.853 26.853-0.533 0-1.063-0.016-1.588-0.046l0.073 0.003zM198.285 278.466h226.611c15.769 0 28.553-12.784 28.553-28.553s-12.784-28.553-28.553-28.553v0h-226.611c-15.769 0-28.553 12.784-28.553 28.553s12.784 28.553 28.553 28.553v0zM594.855 107.205h-396.57c-15.769 0-28.553 12.784-28.553 28.553s12.784 28.553 28.553 28.553v0h396.57c15.769 0 28.553-12.784 28.553-28.553s-12.784-28.553-28.553-28.553v0zM1076.404 107.205c-0.694-0.018-1.512-0.029-2.331-0.029-20.326 0-39.164 6.372-54.626 17.227l0.304-0.202c-15.157-10.653-33.995-17.024-54.321-17.024-0.82 0-1.637 0.010-2.452 0.031l0.121-0.002c-63.046 0-114.155 51.109-114.155 114.155s51.109 114.155 114.155 114.155v0c0.694 0.018 1.512 0.029 2.331 0.029 20.326 0 39.164-6.372 54.626-17.227l-0.304 0.202c15.157 10.653 33.995 17.024 54.321 17.024 0.82 0 1.637-0.010 2.452-0.031l-0.121 0.002c63.046 0 114.155-51.109 114.155-114.155s-51.109-114.155-114.155-114.155v0zM1218.036 960h-1076.404c-79.314 0-141.632-78.068-141.632-177.437v-70.986c0-21.301 11.331-35.465 28.326-35.465h1303.015c16.996 0 28.326 14.22 28.326 35.465v70.986c0 99.369-62.318 177.437-141.632 177.437z" />
<glyph unicode="&#xe90d;" horiz-adv-x="1230" d="M356.965 658.554c0.020 0.291 0.032 0.631 0.032 0.974 0 3.74-1.391 7.155-3.684 9.755l0.014-0.016-117.034 133.205c-2.719 3.101-6.689 5.049-11.113 5.049-3.756 0-7.184-1.403-9.789-3.714l0.015 0.013c-52.876-46.568-97.143-101.36-131.147-162.634l-1.586-3.115c-1.189-2.080-1.89-4.571-1.89-7.226 0-5.584 3.101-10.443 7.675-12.949l0.077-0.039 155.574-85.030c2.080-1.189 4.571-1.89 7.226-1.89 5.584 0 10.443 3.101 12.949 7.675l0.039 0.077c23.486 42.553 52.698 78.768 87.155 109.178l0.436 0.377c2.914 2.542 4.814 6.182 5.051 10.269l0.002 0.040z" />
<glyph unicode="&#xe90e;" horiz-adv-x="1230" d="M407.7 707.066c2.511-4.766 7.431-7.96 13.098-7.96 2.611 0 5.063 0.678 7.19 1.867l-0.075-0.038c38.597 20.941 83.57 36.035 131.248 42.681l2.091 0.239c7.267 0.997 12.805 7.165 12.805 14.626 0 0.711-0.050 1.41-0.148 2.095l0.009-0.079-23.852 175.72c-1.031 7.268-7.212 12.797-14.684 12.797-0.691 0-1.37-0.047-2.036-0.139l0.077 0.009c-75.455-10.486-143.625-33.396-205.333-66.735l3.201 1.581c-4.766-2.511-7.96-7.431-7.96-13.098 0-2.611 0.678-5.063 1.867-7.19l-0.038 0.075z" />
<glyph unicode="&#xe90f;" horiz-adv-x="1230" d="M218.841 471.582l-171.138 46.423c-1.164 0.33-2.501 0.52-3.883 0.52-6.776 0-12.486-4.568-14.217-10.792l-0.025-0.104c-13.434-47.775-21.157-102.64-21.157-159.308 0-0.156 0-0.312 0-0.467v0.024c0-9.298 0-18.529 0.674-28.433 0.37-7.854 6.828-14.082 14.74-14.082 0.005 0 0.011 0 0.016 0h0.673l177.135 8.153c7.861 0.362 14.098 6.823 14.098 14.741 0 0.242-0.006 0.483-0.017 0.722l0.001-0.034c0 6.738-0.472 12.802-0.472 18.866 0 0.055 0 0.12 0 0.184 0 37.492 5.116 73.789 14.687 108.231l-0.672-2.836c0.338 1.178 0.533 2.53 0.533 3.929 0 6.805-4.607 12.535-10.873 14.239l-0.103 0.024z" />
<glyph unicode="&#xe910;" horiz-adv-x="1230" d="M878.061 894.24c-59.624 29.468-129.014 49.806-202.25 57.069l-2.51 0.201c-0.419 0.042-0.905 0.066-1.398 0.066-7.722 0-14.059-5.932-14.702-13.487l-0.004-0.054-17.114-176.461c-0.042-0.419-0.066-0.905-0.066-1.398 0-7.722 5.932-14.059 13.487-14.702l0.054-0.004c49.853-4.935 95.517-18.333 137.095-38.771l-2.34 1.040c1.897-0.951 4.133-1.508 6.499-1.508 5.779 0 10.782 3.322 13.204 8.161l0.039 0.085 77.012 159.752c0.987 1.926 1.565 4.202 1.565 6.613 0 5.906-3.47 11.002-8.482 13.359l-0.090 0.038z" />
<glyph unicode="&#xe911;" horiz-adv-x="1230" d="M1136.992 647.1c0.29 1.093 0.456 2.348 0.456 3.642 0 2.784-0.771 5.387-2.111 7.609l0.037-0.066c-37.741 62.522-83.951 115.598-137.84 159.628l-1.092 0.865c-2.515 2.054-5.761 3.298-9.298 3.298-4.611 0-8.728-2.115-11.434-5.427l-0.021-0.026-111.914-137.584c-2.074-2.522-3.331-5.783-3.331-9.338 0-4.626 2.129-8.754 5.46-11.46l0.027-0.021c36.375-29.701 66.943-64.818 90.892-104.388l1.010-1.798c2.622-4.338 7.313-7.194 12.671-7.194 2.783 0 5.387 0.771 7.609 2.11l-0.066-0.037 152.205 90.959c3.34 2.047 5.774 5.295 6.717 9.129l0.021 0.102z" />
<glyph unicode="&#xe912;" horiz-adv-x="1230" d="M1193.454 529.998c-1.924 6.066-7.504 10.385-14.093 10.385-1.584 0-3.11-0.25-4.54-0.712l0.104 0.029-169.184-53.026c-6.066-1.924-10.385-7.504-10.385-14.093 0-1.584 0.25-3.11 0.712-4.54l-0.029 0.104c11.625-35.88 18.327-77.163 18.327-120.012 0-0.114 0-0.228 0-0.342v0.018c0-6.064 0-12.195-0.472-18.866-0.010-0.206-0.016-0.446-0.016-0.688 0-7.918 6.237-14.379 14.066-14.74l0.032-0.001 177.809-8.153c0.005 0 0.010 0 0.015 0 7.912 0 14.37 6.228 14.739 14.049l0.001 0.033c0.472 9.837 0.674 19.135 0.674 28.433 0 0.115 0 0.251 0 0.388 0 64.886-10.152 127.401-28.953 186.043l1.194-4.31z" />
<glyph unicode="&#xe913;" horiz-adv-x="1230" d="M687.508 224.953c-2.522 0.445-4.977 0.879-7.499 1.325l-211.778 181.13c-1.936 1.662-4.406 2.879-7.187 3.37-8.284 1.463-16.185-4.066-17.648-12.349-0.449-2.54-0.24-5.044 0.504-7.337l-0.025 0.088 86.253-264.486c-1.204-4.132-2.333-8.979-3.214-13.932l-0.001-0.008c-13.319-75.396 37.005-147.313 112.401-160.632s147.313 37.005 160.632 112.401c13.319 75.396-37.005 147.313-112.401 160.632v0z" />
<glyph unicode="&#xe914;" glyph-name="symbol" d="M512 960c-282.77 0-512-229.23-512-512s229.23-512 512-512c282.77 0 512 229.23 512 512v0c-0.327 282.638-229.362 511.672-511.968 512h-0.032zM128 448c0.004 83.371 26.75 160.495 72.129 223.261l-0.769-1.117 534.784-534.784c-61.862-44.629-139.2-71.379-222.785-71.379-211.724 0-383.36 171.636-383.36 383.36 0 0.232 0 0.464 0.001 0.696v-0.036zM824.64 225.856l-534.784 534.784c61.823 44.529 139.083 71.216 222.576 71.216 211.759 0 383.424-171.665 383.424-383.424 0-83.493-26.687-160.752-71.995-223.715l0.78 1.139z" />
<glyph unicode="&#xe915;" glyph-name="toggle-1" horiz-adv-x="1741" d="M1740.8 448c0.001-0.443 0.002-0.968 0.002-1.492 0-280.978-226.993-508.939-507.603-510.507l-0.15-0.001h-725.299c-282.77 0-512 229.23-512 512s229.23 512 512 512v0h725.299c280.753-1.539 507.753-229.489 507.753-510.457 0-0.543-0.001-1.085-0.003-1.627v0.084zM797.85 448c-1.363 159.207-130.741 287.744-290.14 287.744-160.246 0-290.15-129.905-290.15-290.15 0-160.242 129.899-290.145 290.14-290.15h0.001c160.451 0.958 290.151 131.25 290.151 291.835 0 0.254 0 0.507-0.001 0.761v-0.039z" />
<glyph unicode="&#xe916;" glyph-name="toggle" horiz-adv-x="1741" d="M1740.8 448c0.001-0.443 0.002-0.968 0.002-1.492 0-280.978-226.993-508.939-507.603-510.507l-0.15-0.001h-725.299c-282.77 0-512 229.23-512 512s229.23 512 512 512v0h725.299c280.753-1.539 507.753-229.489 507.753-510.457 0-0.543-0.001-1.085-0.003-1.627v0.084zM797.85 448c-1.363 159.207-130.741 287.744-290.14 287.744-160.246 0-290.15-129.905-290.15-290.15 0-160.242 129.899-290.145 290.14-290.15h0.001c160.451 0.958 290.151 131.25 290.151 291.835 0 0.254 0 0.507-0.001 0.761v-0.039z" />
<glyph unicode="&#xe917;" d="M1024 448c0-282.77-229.23-512-512-512s-512 229.23-512 512c0 282.77 229.23 512 512 512s512-229.23 512-512z" />
<glyph unicode="&#xe918;" d="M776.992 342.784h-25.28v25.28c0 13.538-10.974 24.512-24.512 24.512s-24.512-10.974-24.512-24.512v0-25.28h-25.28c-13.538 0-24.512-10.974-24.512-24.512s10.974-24.512 24.512-24.512h25.28v-25.28c0-13.538 10.974-24.512 24.512-24.512s24.512 10.974 24.512 24.512v0 25.28h25.28c13.538 0 24.512 10.974 24.512 24.512s-10.974 24.512-24.512 24.512v0z" />
<glyph unicode="&#xe919;" d="M751.712 559.424c0.054 1.081 0.085 2.348 0.085 3.621 0 41.151-32.271 74.765-72.886 76.915l-0.191 0.008h-349.728c-40.806-2.158-73.077-35.772-73.077-76.923 0-1.274 0.031-2.54 0.092-3.799l-0.007 0.177c-0.003-0.071-0.004-0.154-0.004-0.237 0-3.39 2.635-6.164 5.969-6.386l0.019-0.001h483.616c3.41 0.156 6.116 2.959 6.116 6.394 0 0.081-0.002 0.162-0.004 0.242v-0.012z" />
<glyph unicode="&#xe91a;" d="M751.712 498.784v-29.952c0.011-0.202 0.017-0.438 0.017-0.676 0-7.334-5.946-13.28-13.28-13.28-0.107 0-0.214 0.001-0.321 0.004h0.016c-0.616 0.010-1.343 0.016-2.072 0.016-72.46 0-131.2-58.74-131.2-131.2 0-5.271 0.311-10.47 0.915-15.579l-0.060 0.619c0.052-0.446 0.082-0.963 0.082-1.486 0-7.239-5.696-13.148-12.852-13.489l-0.031-0.001h-263.936c-40.805 2.16-73.074 35.773-73.074 76.923 0 1.251 0.030 2.495 0.089 3.732l-0.007-0.175v124.48c-0.006 0.099-0.009 0.216-0.009 0.333 0 3.391 2.638 6.167 5.974 6.386l0.019 0.001h483.616c3.411-0.155 6.117-2.959 6.117-6.394 0-0.092-0.002-0.184-0.006-0.275v0.013z" />
<glyph unicode="&#xe91b;" d="M1024 448c0-282.77-229.23-512-512-512s-512 229.23-512 512c0 282.77 229.23 512 512 512s512-229.23 512-512z" />
<glyph unicode="&#xe91c;" d="M389.536 564.832c0.010 0.138 0.015 0.3 0.015 0.463 0 1.776-0.661 3.398-1.75 4.633l0.007-0.008-55.584 63.264c-1.291 1.473-3.177 2.398-5.278 2.398-1.784 0-3.412-0.667-4.649-1.764l0.007 0.006c-25.113-22.117-46.137-48.14-62.287-77.241l-0.753-1.479c-0.565-0.988-0.898-2.171-0.898-3.432 0-2.652 1.473-4.96 3.645-6.15l0.036-0.018 73.888-40.384c0.988-0.565 2.171-0.898 3.432-0.898 2.652 0 4.96 1.473 6.15 3.645l0.018 0.036c11.155 20.21 25.028 37.41 41.393 51.853l0.207 0.179c1.384 1.207 2.286 2.936 2.399 4.877l0.001 0.019z" />
<glyph unicode="&#xe91d;" d="M413.632 587.872c1.193-2.264 3.529-3.781 6.221-3.781 1.24 0 2.404 0.322 3.415 0.887l-0.035-0.018c18.331 9.946 39.69 17.115 62.335 20.271l0.993 0.113c3.451 0.473 6.082 3.403 6.082 6.947 0 0.338-0.024 0.67-0.070 0.995l0.004-0.037-11.328 83.456c-0.49 3.452-3.425 6.078-6.974 6.078-0.328 0-0.651-0.022-0.967-0.066l0.037 0.004c-35.836-4.98-68.213-15.861-97.52-31.695l1.52 0.751c-2.264-1.193-3.781-3.529-3.781-6.221 0-1.24 0.322-2.404 0.887-3.415l-0.018 0.035z" />
<glyph unicode="&#xe91e;" d="M323.936 476.032l-81.28 22.048c-0.553 0.157-1.188 0.247-1.844 0.247-3.218 0-5.93-2.169-6.752-5.126l-0.012-0.049c-6.38-22.69-10.048-48.748-10.048-75.662 0-0.074 0-0.148 0-0.222v0.012c0-4.416 0-8.8 0.32-13.504 0.176-3.73 3.243-6.688 7.001-6.688 0.003 0 0.005 0 0.008 0h0.32l84.128 3.872c3.734 0.172 6.696 3.24 6.696 7.001 0 0.115-0.003 0.229-0.008 0.343l0.001-0.016c0 3.2-0.224 6.080-0.224 8.96 0 0.026 0 0.057 0 0.088 0 17.806 2.43 35.045 6.975 51.403l-0.319-1.347c0.161 0.559 0.253 1.202 0.253 1.866 0 3.232-2.188 5.953-5.164 6.763l-0.049 0.011z" />
<glyph unicode="&#xe91f;" d="M637.024 676.768c-28.318 13.995-61.274 23.655-96.056 27.104l-1.192 0.096c-0.199 0.020-0.43 0.032-0.664 0.032-3.667 0-6.677-2.817-6.982-6.406l-0.002-0.026-8.128-83.808c-0.020-0.199-0.032-0.43-0.032-0.664 0-3.667 2.817-6.677 6.406-6.982l0.026-0.002c23.677-2.344 45.365-8.707 65.112-18.414l-1.112 0.494c0.901-0.452 1.963-0.716 3.087-0.716 2.745 0 5.121 1.578 6.271 3.876l0.018 0.040 36.576 75.872c0.469 0.915 0.743 1.996 0.743 3.141 0 2.805-1.648 5.225-4.028 6.345l-0.043 0.018z" />
<glyph unicode="&#xe920;" d="M760 559.392c0.138 0.519 0.217 1.115 0.217 1.73 0 1.322-0.366 2.559-1.002 3.614l0.018-0.031c-17.925 29.694-39.871 54.902-65.466 75.813l-0.518 0.411c-1.194 0.975-2.736 1.566-4.416 1.566-2.19 0-4.145-1.004-5.43-2.578l-0.010-0.013-53.152-65.344c-0.985-1.198-1.582-2.747-1.582-4.435 0-2.197 1.011-4.158 2.593-5.443l0.013-0.010c17.276-14.106 31.794-30.784 43.168-49.578l0.48-0.854c1.245-2.060 3.473-3.417 6.018-3.417 1.322 0 2.558 0.366 3.614 1.002l-0.032-0.018 72.288 43.2c1.586 0.972 2.742 2.515 3.19 4.336l0.010 0.048z" />
<glyph unicode="&#xe921;" d="M786.816 503.776c-0.914 2.881-3.564 4.932-6.693 4.932-0.752 0-1.477-0.119-2.156-0.338l0.050 0.014-80.352-25.184c-2.881-0.914-4.932-3.564-4.932-6.693 0-0.752 0.119-1.477 0.338-2.156l-0.014 0.050c5.521-17.041 8.704-36.648 8.704-56.998 0-0.054 0-0.108 0-0.162v0.008c0-2.88 0-5.792-0.224-8.96-0.005-0.098-0.008-0.212-0.008-0.327 0-3.761 2.962-6.829 6.68-7l0.015-0.001 84.448-3.872c0.002 0 0.005 0 0.007 0 3.758 0 6.825 2.958 7 6.672l0.001 0.016c0.224 4.672 0.32 9.088 0.32 13.504 0 0.055 0 0.119 0 0.184 0 30.817-4.821 60.507-13.751 88.359l0.567-2.047z" />
<glyph unicode="&#xe922;" d="M546.523 358.898c-1.198 0.212-2.364 0.418-3.562 0.629l-100.581 86.025c-0.92 0.789-2.093 1.367-3.413 1.6-3.934 0.695-7.687-1.931-8.382-5.865-0.213-1.206-0.114-2.396 0.239-3.485l-0.012 0.042 40.965-125.614c-0.572-1.963-1.108-4.265-1.526-6.617l-0.001-0.004c-6.326-35.808 17.575-69.964 53.383-76.29s69.964 17.575 76.29 53.383c6.326 35.808-17.575 69.964-53.383 76.29v0z" />
<glyph unicode="&#xe923;" d="M1024 448c0-282.77-229.23-512-512-512s-512 229.23-512 512c0 282.77 229.23 512 512 512s512-229.23 512-512z" />
<glyph unicode="&#xe924;" d="M512 704c-141.385 0-256-114.615-256-256s114.615-256 256-256c141.385 0 256 114.615 256 256v0c-0.164 141.319-114.681 255.836-255.984 256h-0.016zM320 448c0.002 41.686 13.375 80.247 36.064 111.63l-0.384-0.558 267.392-267.392c-30.931-22.315-69.6-35.69-111.392-35.69-105.862 0-191.68 85.818-191.68 191.68 0 0.116 0 0.232 0 0.348v-0.018zM668.32 336.928l-267.392 267.392c30.911 22.264 69.541 35.608 111.288 35.608 105.88 0 191.712-85.832 191.712-191.712 0-41.746-13.343-80.376-35.998-111.857l0.39 0.569z" />
<glyph unicode="&#xe925;" d="M400.448 604.8l267.004-267.004-45.255-45.255-267.004 267.004 45.255 45.255z" />
<glyph unicode="&#xe926;" glyph-name="user" horiz-adv-x="854" d="M420.693 467.328c1.021-0.016 2.227-0.025 3.434-0.025 67.063 0 127.672 27.629 171.067 72.124l0.048 0.050c44.565 43.314 72.216 103.826 72.216 170.796 0 1.2-0.009 2.397-0.027 3.593l0.002-0.181c0.012 0.9 0.019 1.962 0.019 3.025 0 67.141-27.787 127.791-72.489 171.079l-0.063 0.061c-44.704 44.582-106.397 72.148-174.528 72.148s-129.824-27.566-174.533-72.153l0.005 0.005c-44.765-43.349-72.553-104-72.553-171.14 0-1.064 0.007-2.126 0.021-3.186l-0.002 0.161c-0.012-0.905-0.019-1.973-0.019-3.043 0-67.135 27.788-127.78 72.489-171.060l0.064-0.062c43.48-44.574 104.136-72.219 171.249-72.219 1.265 0 2.528 0.010 3.789 0.029l-0.19-0.002zM852.267 172.288c-1.839 24.538-4.775 46.681-8.869 68.415l0.591-3.775c-4.523 25.472-10.042 47.332-16.922 68.58l1.007-3.599c-7.598 23.264-16.657 43.3-27.575 62.124l0.823-1.538c-11.352 20.084-24.742 37.347-40.265 52.427l-0.055 0.053c-16.247 15.281-35.493 27.592-56.734 35.934l-1.207 0.418c-21.355 8.459-46.096 13.364-71.982 13.364-0.689 0-1.377-0.003-2.065-0.010l0.105 0.001c-15.439-1.716-29.185-7.879-40.221-17.16l0.114 0.094c-12.032-7.808-26.069-17.067-41.771-26.88-15.518-9.435-33.421-17.514-52.32-23.317l-1.696-0.448c-19.737-6.773-42.479-10.683-66.133-10.683s-46.396 3.91-67.613 11.119l1.48-0.437c-20.579 6.249-38.468 14.328-55.039 24.365l1.066-0.599c-15.531 9.899-29.611 18.987-41.813 26.923-10.908 9.185-24.64 15.347-39.724 17.036l-0.34 0.031c-0.571 0.006-1.246 0.009-1.921 0.009-25.903 0-50.657-4.921-73.377-13.878l1.357 0.472c-22.449-8.757-41.696-21.068-58.033-36.437l0.092 0.085c-15.577-15.133-28.967-32.396-39.728-51.347l-0.592-1.133c-10.090-17.285-19.149-37.321-26.101-58.317l-0.651-2.27c-5.867-17.642-11.387-39.502-15.446-61.871l-0.468-3.111c-3.508-17.969-6.444-40.111-8.153-62.598l-0.125-2.042c-1.365-19.584-2.048-39.893-2.048-60.416-0.107-2.248-0.167-4.884-0.167-7.533 0-47.393 19.424-90.249 50.746-121.041l0.024-0.023c32.223-29.489 75.325-47.557 122.648-47.557 2.633 0 5.252 0.056 7.858 0.167l-0.372-0.013h493.056c2.238-0.099 4.863-0.155 7.502-0.155 47.318 0 90.415 18.068 122.769 47.682l-0.138-0.124c31.295 30.795 50.686 73.606 50.686 120.946 0 2.661-0.061 5.308-0.182 7.939l0.014-0.373c-0.043 20.821-0.725 41.045-2.091 60.501z" />
</font>
</defs>
</svg>
